<?xml version="1.0" standalone="no"?>
<!DOCTYPE svg PUBLIC "-//W3C//DTD SVG 20010904//EN"
 "http://www.w3.org/TR/2001/REC-SVG-20010904/DTD/svg10.dtd">
<svg version="1.0" xmlns="http://www.w3.org/2000/svg"
 width="275.000000pt" height="183.000000pt" viewBox="0 0 275.000000 183.000000"
 preserveAspectRatio="xMidYMid meet">

<g transform="translate(0.000000,183.000000) scale(0.100000,-0.100000)"
fill="#000000" stroke="none">
<path d="M1376 1633 c-3 -7 1 -16 9 -19 13 -5 15 -39 15 -213 l0 -206 -25 -24
c-20 -18 -25 -20 -25 -7 0 9 -7 16 -15 16 -8 0 -12 -6 -9 -14 3 -8 1 -17 -5
-21 -6 -3 -11 -1 -11 5 0 6 -5 8 -10 5 -14 -9 -52 4 -45 16 4 5 3 9 -2 9 -4 1
-108 5 -230 10 l-223 9 -44 30 c-25 17 -47 31 -49 31 -2 0 -20 -13 -38 -30
-25 -22 -35 -26 -37 -15 -2 8 -10 15 -18 15 -12 0 -12 -4 -4 -20 6 -12 7 -20
1 -20 -15 0 -42 31 -36 41 4 5 2 9 -4 9 -5 0 -13 -9 -16 -20 -3 -11 -11 -20
-16 -20 -6 0 -7 5 -4 10 3 6 3 10 -2 11 -4 0 -17 2 -28 4 -11 2 -27 -3 -37
-12 -15 -13 -26 -14 -83 -4 -37 7 -75 9 -86 6 -15 -5 -18 -3 -13 12 3 10 2 14
-3 8 -4 -5 -46 -10 -93 -11 -67 -1 -88 3 -97 15 -11 14 -12 14 -13 -1 0 -16
-11 -23 -32 -19 -5 0 -8 -4 -8 -9 0 -5 -3 -9 -7 -9 -27 4 -33 -4 -33 -47 0
-44 13 -68 38 -70 47 -4 48 -4 32 -14 -9 -6 -17 -5 -22 3 -13 22 -49 -23 -46
-59 l2 -33 126 5 c190 8 574 11 633 5 28 -4 79 -3 112 0 33 3 50 6 38 7 -12 1
-25 7 -28 13 -5 7 5 8 32 2 21 -4 72 -7 113 -6 231 7 320 7 320 3 0 -3 16 -6
35 -7 26 -2 35 1 35 12 0 9 10 15 28 16 15 1 70 3 122 5 52 1 122 6 155 9 33
3 131 6 218 5 142 -1 157 1 157 16 0 10 -8 26 -17 37 -16 18 -16 20 -2 14 9
-3 22 0 29 6 10 10 11 3 6 -30 l-6 -42 197 4 c109 2 253 5 321 5 102 0 122 2
122 15 0 8 -9 15 -20 15 -11 0 -20 5 -20 11 0 6 9 13 20 16 16 4 20 14 20 43
0 32 -4 39 -25 44 -15 4 -40 -1 -62 -11 -21 -9 -47 -16 -58 -15 -11 1 -42 2
-68 2 -27 0 -58 5 -69 11 -15 8 -30 6 -64 -10 -24 -12 -48 -21 -53 -21 -5 0
-14 -7 -21 -15 -7 -8 -16 -12 -21 -9 -5 3 -9 1 -9 -5 0 -6 -7 -8 -15 -5 -11 4
-13 13 -9 28 3 11 7 23 8 26 0 3 -4 5 -9 5 -6 0 -9 -3 -8 -7 2 -5 0 -7 -5 -6
-4 0 -15 -2 -26 -7 -11 -5 -21 -3 -26 5 -8 14 -110 22 -110 9 0 -4 -8 -10 -18
-13 -19 -6 -28 -51 -12 -61 15 -9 12 -22 -5 -22 -8 0 -15 4 -15 8 0 4 -9 10
-19 14 -11 3 -18 12 -15 19 9 23 -49 37 -81 20 -31 -16 -48 -19 -25 -4 12 7 7
12 -23 25 -21 9 -42 13 -47 10 -4 -3 -10 0 -12 7 -8 22 -128 13 -136 -10 -2
-7 -11 -8 -25 -3 -12 4 -28 6 -36 3 -7 -2 -16 0 -20 6 -4 6 -25 1 -55 -14 -27
-13 -54 -20 -60 -17 -19 12 -46 13 -46 2 0 -5 -4 -8 -9 -5 -4 3 -6 18 -3 33 2
16 1 25 -3 20 -5 -4 -12 -37 -15 -75 -4 -40 -8 46 -9 217 -1 245 1 282 14 278
15 -6 32 10 21 20 -12 12 -65 10 -70 -4z m1341 -439 c-3 -3 -12 -4 -19 -1 -8
3 -5 6 6 6 11 1 17 -2 13 -5z m-571 -60 c18 -14 18 -14 -6 -3 -31 14 -36 19
-24 19 6 0 19 -7 30 -16z m114 -4 c0 -5 -2 -10 -4 -10 -3 0 -8 5 -11 10 -3 6
-1 10 4 10 6 0 11 -4 11 -10z m346 -32 c19 3 22 7 14 18 -9 10 -5 13 19 12 49
-2 37 -25 -19 -37 -69 -15 -70 -15 -57 14 10 21 12 22 15 6 2 -13 9 -17 28
-13z m-699 16 c-3 -3 -12 -4 -19 -1 -8 3 -5 6 6 6 11 1 17 -2 13 -5z m-1683
-13 c9 -14 -5 -42 -17 -34 -5 3 -7 1 -4 -4 4 -6 0 -14 -9 -17 -24 -9 -31 -7
-14 4 13 8 12 10 -2 10 -10 0 -18 7 -18 15 0 8 9 15 20 15 11 0 20 5 20 10 0
12 17 13 24 1z m1965 -7 c2 -2 -7 -4 -22 -4 -14 0 -29 5 -32 10 -6 10 42 4 54
-6z m321 3 c0 -8 -12 -13 -30 -12 -16 0 -30 3 -30 7 0 6 11 9 53 17 4 0 7 -5
7 -12z m-1230 -7 c0 -5 -5 -10 -11 -10 -5 0 -7 5 -4 10 3 6 8 10 11 10 2 0 4
-4 4 -10z m250 -20 c0 -4 -6 -10 -13 -13 -7 -3 -13 3 -13 13 0 10 6 16 13 13
7 -3 13 -9 13 -13z m-1275 -20 c-10 -11 -14 -20 -10 -20 5 0 4 -5 -3 -12 -9
-9 -15 -9 -24 0 -9 9 -7 16 7 32 10 11 25 20 33 20 12 0 12 -4 -3 -20z m565
-40 c0 -5 -10 -10 -22 -9 -22 0 -22 1 -3 9 11 5 21 9 23 9 1 1 2 -3 2 -9z"/>
<path d="M2528 1206 c3 -11 7 -15 10 -8 2 7 8 10 13 6 5 -3 9 -1 9 4 0 5 -8
12 -19 15 -15 3 -17 0 -13 -17z"/>
<path d="M2496 1202 c-3 -5 1 -9 9 -9 8 0 12 4 9 9 -3 4 -7 8 -9 8 -2 0 -6 -4
-9 -8z"/>
<path d="M2013 1023 c-23 -8 -14 -23 12 -21 14 1 25 5 25 9 0 10 -23 17 -37
12z"/>
<path d="M2248 1023 c7 -3 16 -2 19 1 4 3 -2 6 -13 5 -11 0 -14 -3 -6 -6z"/>
<path d="M2188 983 c6 -2 18 -2 25 0 6 3 1 5 -13 5 -14 0 -19 -2 -12 -5z"/>
<path d="M1590 962 c0 -5 7 -9 15 -9 8 0 15 4 15 9 0 4 -7 8 -15 8 -8 0 -15
-4 -15 -8z"/>
<path d="M1275 948 c-2 -7 -6 -31 -7 -53 -3 -37 -1 -40 22 -40 22 0 26 5 30
47 4 35 2 49 -8 53 -22 8 -32 6 -37 -7z"/>
<path d="M1412 948 c-14 -14 -16 -78 -2 -78 6 0 10 10 11 23 l0 22 9 -21 c10
-26 30 -40 30 -22 0 34 -13 56 -27 51 -11 -4 -14 -2 -11 8 3 8 11 13 17 11 7
-1 10 2 6 8 -8 13 -18 13 -33 -2z"/>
<path d="M2158 953 c6 -2 12 -11 12 -18 0 -7 7 -15 15 -19 10 -3 15 1 15 13 0
18 -20 32 -43 30 -8 0 -8 -2 1 -6z"/>
<path d="M1140 933 c0 -10 4 -14 8 -8 4 6 11 13 16 18 5 4 2 7 -7 7 -10 0 -17
-8 -17 -17z"/>
<path d="M1919 948 c-6 -14 -6 -57 1 -53 4 3 11 -6 14 -20 4 -14 11 -25 17
-25 6 0 6 6 0 18 -6 11 -6 24 1 35 7 13 6 22 -2 33 -11 12 -28 19 -31 12z"/>
<path d="M2019 948 c-1 -2 -3 -22 -3 -45 -2 -41 7 -57 17 -30 4 7 6 6 6 -5 1
-13 5 -14 24 -5 18 8 22 17 19 36 -5 27 -28 50 -49 51 -7 0 -14 -1 -14 -2z
m26 -38 c3 -5 1 -10 -4 -10 -6 0 -11 5 -11 10 0 6 2 10 4 10 3 0 8 -4 11 -10z"/>
<path d="M1005 931 c-3 -7 0 -8 9 -5 10 4 16 -3 19 -23 l4 -28 -1 29 c-1 30
-19 46 -31 27z"/>
<path d="M1734 925 c-11 -28 5 -65 28 -65 12 0 18 3 15 6 -3 4 -2 15 4 26 7
14 7 23 -2 34 -15 18 -38 18 -45 -1z"/>
<path d="M685 921 c-3 -5 -1 -12 4 -15 5 -3 11 1 15 9 6 16 -9 21 -19 6z"/>
<path d="M860 915 c0 -8 5 -15 11 -15 7 0 8 -7 4 -17 -4 -10 -7 -32 -6 -50 1
-23 -4 -33 -17 -38 -13 -3 -19 -15 -19 -31 0 -22 3 -25 23 -21 13 2 25 1 26
-3 2 -4 31 -3 65 3 35 5 60 14 57 18 -3 5 -17 7 -32 3 -24 -5 -25 -4 -10 8 25
21 6 48 -22 31 -41 -26 -60 -11 -60 47 0 15 7 33 15 40 23 19 18 40 -10 40
-16 0 -25 -6 -25 -15z"/>
<path d="M541 905 c9 -9 23 -13 33 -9 14 5 15 9 4 15 -7 5 -22 9 -33 9 -17 0
-18 -2 -4 -15z"/>
<path d="M2133 849 c-2 -39 -5 -75 -8 -80 -4 -5 -24 -9 -46 -9 -22 0 -54 -7
-72 -16 -21 -12 -32 -13 -35 -5 -2 6 -13 11 -23 11 -11 0 -17 5 -14 10 8 13
-16 13 -49 1 -18 -7 -28 -6 -36 4 -9 10 -17 12 -30 5 -14 -7 -21 -4 -33 13
-15 21 -15 21 -23 3 -5 -13 -3 -21 4 -24 7 -2 19 -10 26 -18 18 -17 50 -19 40
-2 -4 6 3 4 15 -5 13 -8 30 -13 37 -10 8 3 24 3 37 0 20 -6 22 -13 23 -67 2
-50 7 -67 26 -88 13 -15 37 -44 52 -65 22 -30 33 -37 54 -35 24 3 27 7 26 42
-1 35 0 38 11 23 12 -16 13 -16 19 -1 4 9 5 18 4 18 -46 27 -57 40 -67 80 -15
60 -14 71 2 58 16 -13 78 -25 76 -15 -3 19 2 33 12 33 16 0 6 -42 -13 -54 -13
-8 -23 -8 -38 2 -11 6 -22 12 -26 12 -9 0 20 -26 36 -33 9 -3 6 -6 -10 -6 -20
-1 -22 -3 -10 -11 12 -8 12 -10 1 -10 -8 0 -12 -2 -10 -4 2 -2 27 0 54 3 48 6
50 7 50 36 0 25 4 29 20 26 11 -2 38 -4 60 -6 49 -2 85 -13 85 -26 0 -5 5 -9
10 -9 6 0 10 8 8 17 -2 11 6 22 20 28 32 14 35 35 12 80 -11 22 -20 51 -19 65
1 23 2 22 10 -7 13 -45 29 -51 29 -11 -1 41 -23 73 -45 64 -11 -4 -15 -15 -12
-38 2 -18 2 -25 0 -15 -5 21 -19 22 -27 1 -8 -21 -8 -34 2 -33 21 4 31 -4 41
-31 5 -16 15 -30 21 -30 6 0 9 -4 5 -9 -7 -12 -49 9 -73 37 -24 28 -101 46
-108 26 -2 -8 -6 -21 -9 -29 -2 -8 -12 -15 -22 -15 -13 0 -14 3 -5 8 9 6 5 12
-13 22 -14 7 -25 18 -26 24 -6 63 -3 101 9 98 8 -1 12 3 9 10 -2 7 -10 12 -16
11 -6 -2 -11 2 -11 7 0 6 -3 10 -7 10 -5 0 -9 -32 -10 -71z m-43 -121 c0 -4
-11 -7 -24 -6 -14 1 -23 5 -21 8 5 9 45 7 45 -2z"/>
<path d="M2262 908 c-16 -16 -15 -39 0 -35 20 4 40 26 33 37 -8 13 -18 13 -33
-2z"/>
<path d="M1147 889 c4 -13 8 -18 11 -10 2 7 -1 18 -6 23 -8 8 -9 4 -5 -13z"/>
<path d="M1592 873 c-2 -32 -23 -45 -37 -23 -9 15 -27 1 -21 -16 3 -7 -4 -23
-15 -36 -11 -13 -18 -17 -14 -10 4 8 -2 12 -17 12 -18 0 -20 -2 -8 -10 12 -8
11 -10 -7 -10 -12 0 -24 -3 -26 -7 -3 -5 21 -6 54 -5 44 3 59 0 59 -10 0 -11
2 -11 9 0 7 11 12 11 27 2 14 -8 33 -9 62 -4 55 11 55 29 -1 26 -23 -1 -35 2
-27 6 8 4 15 18 15 32 0 20 -5 25 -22 23 -18 -2 -23 4 -26 30 l-4 32 -1 -32z"/>
<path d="M290 886 c0 -2 7 -9 15 -16 9 -7 15 -8 15 -2 0 5 -7 12 -15 16 -8 3
-15 4 -15 2z"/>
<path d="M373 861 c-6 -30 -51 -81 -69 -81 -7 0 -15 -17 -19 -39 -3 -21 -14
-47 -23 -57 -18 -20 -27 -64 -13 -64 4 0 21 12 36 26 24 22 31 24 53 14 31
-14 43 0 40 45 -2 21 1 30 12 30 9 0 14 -8 13 -20 -1 -11 4 -23 10 -27 8 -5 8
-8 -3 -8 -13 0 -13 -1 0 -10 25 -16 30 -11 20 16 -6 14 -7 37 -4 51 5 17 3 24
-3 20 -6 -4 -17 1 -24 10 -12 15 -12 16 4 10 16 -6 17 -3 10 16 -4 12 -7 38
-7 58 2 43 -23 50 -33 10z"/>
<path d="M2307 883 c-14 -4 -17 -11 -13 -26 3 -12 6 -28 6 -34 0 -20 25 -15
45 7 18 20 17 20 -11 21 -17 1 -22 3 -11 6 9 2 17 11 17 19 0 14 -2 15 -33 7z"/>
<path d="M228 873 c-9 -2 -15 -10 -12 -17 3 -8 -2 -16 -10 -19 -22 -9 -20 -60
3 -81 16 -15 19 -15 31 -1 10 12 10 18 0 30 -9 11 -9 15 -1 15 7 0 9 5 5 11
-3 6 6 22 22 36 16 13 22 22 13 20 -9 -3 -20 -2 -25 2 -5 4 -17 6 -26 4z"/>
<path d="M1150 847 c0 -12 -9 -17 -29 -17 -27 0 -29 -3 -28 -34 l2 -33 78 3
c73 3 95 11 65 24 -7 3 -13 12 -13 20 0 8 -9 15 -20 15 -11 0 -28 9 -37 19
-16 17 -18 17 -18 3z"/>
<path d="M2477 854 c-3 -4 3 -18 14 -33 l20 -26 -23 -8 c-47 -18 -53 -24 -48
-48 2 -13 4 -41 5 -61 0 -21 0 -38 0 -38 1 0 19 9 40 20 l40 21 18 -22 c9 -12
17 -38 17 -58 0 -20 4 -43 10 -51 14 -22 24 12 16 58 -4 20 -8 47 -9 59 -1 11
-5 19 -9 17 -3 -2 -13 15 -21 38 -13 40 -12 45 7 71 l21 29 -24 19 c-23 19
-61 25 -74 13z"/>
<path d="M660 817 c0 -20 0 -40 1 -44 1 -10 -31 -21 -62 -22 -21 -1 -28 -7
-34 -28 -3 -15 -15 -33 -26 -41 -10 -7 -19 -24 -19 -38 0 -14 -6 -24 -14 -24
-29 0 -47 -147 -21 -173 22 -22 20 -26 -31 -48 -56 -23 -80 -18 -89 21 -3 15
-14 31 -23 35 -9 3 -13 3 -9 -1 4 -4 2 -13 -5 -21 -7 -9 -8 -13 -1 -11 6 2 11
0 12 -4 1 -5 -1 -8 -4 -8 -3 0 -12 0 -20 0 -8 0 -15 7 -15 17 0 14 -2 15 -17
1 -28 -24 -62 -31 -93 -18 -38 16 -29 40 14 40 25 0 35 6 44 25 16 35 15 45
-4 45 -9 0 -12 5 -8 13 6 9 5 9 -7 0 -8 -6 -16 -11 -19 -11 -3 0 -16 -5 -30
-10 -14 -6 -61 -18 -105 -28 l-79 -17 34 -13 c19 -7 49 -13 65 -14 27 -2 26
-3 -13 -12 -23 -5 -42 -13 -42 -17 0 -10 93 -31 141 -31 36 0 39 -2 30 -19
-12 -21 2 -31 41 -31 11 0 18 -5 15 -12 -2 -7 -11 -12 -20 -12 -9 1 -15 -2
-12 -6 3 -5 1 -10 -4 -12 -5 -1 -11 -9 -13 -17 -3 -15 13 -20 95 -25 51 -4 57
-3 57 15 0 10 -6 19 -12 19 -10 0 -9 3 1 9 7 5 11 13 8 18 -3 5 28 15 70 21
42 7 85 20 95 29 17 15 17 15 2 -15 -14 -30 -19 -32 -70 -32 -30 0 -54 -4 -54
-10 0 -6 28 -10 65 -10 52 0 65 3 65 16 0 10 6 14 18 10 58 -17 72 -17 119 6
50 24 66 55 43 83 -6 7 -11 31 -12 53 0 33 -3 39 -19 35 -14 -4 -19 3 -24 30
-4 18 -4 48 -2 66 5 30 -5 42 -18 21 -3 -5 -2 -10 4 -10 6 0 8 -7 5 -15 -4 -8
-15 -15 -25 -15 -17 0 -19 6 -15 45 2 24 1 43 -3 41 -3 -2 -15 1 -26 5 -19 9
-19 9 2 5 12 -2 30 2 40 10 10 7 26 14 36 14 10 0 16 3 13 8 -2 4 -20 7 -39 6
-29 -2 -34 1 -29 15 5 14 4 14 -11 2 -15 -12 -17 -11 -17 3 0 14 8 17 43 14
23 -2 46 -7 50 -13 4 -5 5 19 2 55 -6 72 -15 93 -15 37z"/>
<path d="M730 816 c0 -22 3 -27 11 -19 8 8 8 16 0 30 -9 16 -10 14 -11 -11z"/>
<path d="M2470 820 c0 -5 5 -10 11 -10 5 0 7 5 4 10 -3 6 -8 10 -11 10 -2 0
-4 -4 -4 -10z"/>
<path d="M1351 797 c0 -10 -5 -15 -11 -12 -5 3 -10 1 -10 -4 0 -7 22 -11 53
-11 l52 1 -29 15 c-22 13 -30 13 -36 4 -6 -9 -9 -8 -13 6 -4 17 -5 17 -6 1z"/>
<path d="M1698 743 c6 -2 18 -2 25 0 6 3 1 5 -13 5 -14 0 -19 -2 -12 -5z"/>
<path d="M720 731 c0 -13 26 -32 33 -24 8 7 -11 33 -24 33 -5 0 -9 -4 -9 -9z"/>
<path d="M508 723 c6 -2 18 -2 25 0 6 3 1 5 -13 5 -14 0 -19 -2 -12 -5z"/>
<path d="M939 709 c-10 -10 -17 -24 -15 -31 3 -7 7 -25 10 -41 6 -23 9 -26 26
-17 10 5 26 7 36 3 11 -4 23 2 35 18 16 22 20 23 50 12 18 -7 35 -10 38 -8 2
3 -1 5 -8 5 -7 0 -9 5 -6 10 4 6 -8 10 -29 10 -29 0 -36 4 -36 19 0 11 -5 23
-12 27 -24 15 -71 11 -89 -7z m21 -69 c0 -5 -5 -10 -11 -10 -5 0 -7 5 -4 10 3
6 8 10 11 10 2 0 4 -4 4 -10z"/>
<path d="M648 673 c6 -2 18 -2 25 0 6 3 1 5 -13 5 -14 0 -19 -2 -12 -5z"/>
<path d="M1425 670 c-4 -6 -12 -9 -19 -7 -14 5 -40 -49 -50 -103 -7 -33 -6
-34 9 -16 8 11 15 31 15 46 0 16 11 36 31 53 18 15 29 30 26 33 -3 3 -8 0 -12
-6z"/>
<path d="M1160 660 c0 -5 7 -10 16 -10 8 0 12 5 9 10 -3 6 -10 10 -16 10 -5 0
-9 -4 -9 -10z"/>
<path d="M1226 661 c-10 -4 -28 -31 -40 -59 -12 -29 -32 -59 -44 -68 -25 -18
-29 -46 -7 -64 17 -14 20 -30 6 -30 -5 0 -12 8 -14 18 -4 13 -5 13 -6 -4 -1
-15 -15 -28 -51 -45 -37 -18 -50 -29 -50 -45 0 -16 -12 -27 -50 -43 l-50 -22
-45 20 c-37 16 -45 17 -45 5 0 -8 -8 -14 -17 -13 -11 0 -13 3 -5 6 6 2 12 11
12 19 0 8 6 14 13 14 8 0 7 3 -3 10 -12 8 -12 11 3 28 9 10 17 27 17 37 0 12
-14 0 -40 -36 -57 -78 -63 -84 -68 -70 -2 7 -12 1 -24 -15 -12 -14 -30 -29
-42 -34 -17 -6 -10 -9 32 -15 28 -4 52 -10 52 -14 0 -3 30 -4 66 -3 53 3 66 1
62 -10 -20 -53 -20 -53 32 -56 63 -3 100 -17 100 -37 0 -8 4 -15 9 -15 5 0 7
9 4 20 -3 11 -1 20 3 20 5 0 61 5 124 12 146 14 250 12 271 -8 23 -21 25 -19
38 31 12 47 10 52 -43 108 -19 20 -20 20 -63 -29 -23 -27 -43 -45 -43 -41 0 5
-10 1 -22 -7 -46 -33 -177 -6 -179 36 0 7 -4 4 -8 -7 -7 -17 -17 -20 -72 -18
-83 2 -81 2 -75 12 6 8 59 23 101 27 11 1 23 -3 27 -9 4 -7 10 -2 16 13 l9 24
6 -25 c13 -50 109 -72 160 -37 15 11 27 26 27 34 0 8 5 12 10 9 6 -3 10 -2 10
4 0 5 -4 13 -10 16 -5 3 -10 1 -10 -5 0 -5 -15 -19 -32 -30 -37 -22 -86 -20
-125 6 -37 24 -26 34 14 13 21 -10 48 -19 61 -19 25 0 82 50 82 72 -1 7 -11 1
-23 -14 -31 -38 -85 -39 -124 -2 -15 15 -21 22 -13 16 44 -29 131 -21 144 14
4 11 2 12 -14 4 -20 -11 -50 -4 -50 11 0 8 51 14 93 11 10 -1 20 4 23 12 3 8
16 12 32 9 26 -3 26 -3 5 8 -24 13 -32 32 -10 23 8 -3 26 0 41 5 22 9 28 8 33
-6 6 -15 7 -14 14 3 7 18 8 18 8 -2 1 -11 10 -29 21 -39 20 -18 20 -17 20 19
0 31 -4 38 -27 47 -15 6 -35 8 -44 6 -9 -3 -23 0 -30 5 -10 7 -9 8 6 3 16 -5
17 -4 8 6 -9 9 -17 8 -37 -5 -39 -25 -49 -21 -43 18 3 22 0 41 -9 55 -23 32
-26 81 -6 82 9 0 2 5 -15 10 -18 5 -33 14 -33 19 0 11 -26 12 -54 1z m94 -175
c0 -8 -14 -15 -35 -18 -38 -4 -45 5 -17 21 25 15 52 13 52 -3z m90 -32 c0 -2
-7 -4 -15 -4 -8 0 -15 4 -15 10 0 5 7 7 15 4 8 -4 15 -8 15 -10z m90 -14 c0
-5 -4 -10 -10 -10 -5 0 -10 5 -10 10 0 6 5 10 10 10 6 0 10 -4 10 -10z m-182
-12 c-6 -16 -78 -23 -78 -8 0 6 5 8 10 5 6 -3 10 -1 10 4 0 6 14 11 31 11 20
0 29 -4 27 -12z m67 -188 c3 -5 2 -10 -4 -10 -5 0 -13 5 -16 10 -3 6 -2 10 4
10 5 0 13 -4 16 -10z"/>
<path d="M1593 658 c-6 -7 -13 -25 -17 -40 -3 -16 -11 -28 -17 -28 -6 0 -7 5
-4 10 3 6 -3 10 -14 10 -12 0 -31 10 -42 21 -12 12 -24 17 -28 12 -3 -6 -13
-13 -21 -16 -12 -4 -12 -6 2 -6 12 -1 15 -6 11 -17 -4 -10 1 -17 16 -21 25 -6
26 -11 4 -35 -9 -10 -12 -18 -7 -18 5 0 17 8 25 19 12 13 14 23 6 37 -8 15 -7
17 3 7 7 -6 18 -9 24 -7 6 2 23 -6 36 -18 14 -13 28 -22 32 -20 5 1 8 -2 8 -8
0 -5 8 -10 18 -10 13 0 14 -2 4 -9 -11 -6 -11 -20 -3 -66 6 -32 11 -74 11 -92
0 -18 5 -33 10 -33 6 0 10 6 10 13 0 9 9 12 30 9 24 -3 32 1 49 29 26 43 26
59 1 66 -12 3 -22 17 -26 32 -2 14 -9 41 -14 60 -5 19 -7 38 -4 43 3 4 0 8 -5
8 -6 0 -11 13 -11 28 0 15 -5 33 -12 40 -16 16 -63 15 -75 0z"/>
<path d="M651 651 c-8 -6 -9 -11 -3 -15 6 -3 14 -1 17 5 9 14 2 20 -14 10z"/>
<path d="M391 628 c-1 -10 -5 -18 -11 -18 -5 0 -10 -5 -10 -12 0 -8 6 -7 16 4
9 9 14 22 11 30 -4 9 -6 7 -6 -4z"/>
<path d="M128 621 c16 -10 -16 -21 -60 -21 -16 0 -28 -4 -28 -10 0 -5 7 -10
16 -10 8 0 12 -5 9 -11 -5 -7 5 -8 32 -4 92 15 93 16 93 41 0 21 -4 24 -37 24
-25 0 -33 -3 -25 -9z"/>
<path d="M1080 620 c13 -8 12 -10 -2 -10 -19 0 -20 -20 -3 -32 16 -12 25 -9
25 7 0 8 8 15 18 15 13 1 11 4 -8 15 -28 16 -54 20 -30 5z"/>
<path d="M1700 609 c0 -5 5 -7 10 -4 6 3 10 8 10 11 0 2 -4 4 -10 4 -5 0 -10
-5 -10 -11z"/>
<path d="M2373 587 l2 -38 50 3 c28 2 50 8 50 13 0 6 4 15 8 21 5 9 -3 10 -31
3 -55 -13 -62 -11 -71 14 -8 18 -9 15 -8 -16z"/>
<path d="M245 600 c-3 -5 -1 -10 4 -10 6 0 11 5 11 10 0 6 -2 10 -4 10 -3 0
-8 -4 -11 -10z"/>
<path d="M850 600 c0 -5 4 -10 9 -10 6 0 13 5 16 10 3 6 -1 10 -9 10 -9 0 -16
-4 -16 -10z"/>
<path d="M300 578 c0 -15 -3 -28 -7 -31 -5 -2 -2 -2 5 -1 6 2 12 -1 12 -6 0
-6 -8 -10 -17 -10 -17 -1 -17 -1 0 -11 24 -14 30 -7 29 32 -1 40 -22 65 -22
27z"/>
<path d="M1753 582 c-7 -4 -9 -13 -5 -19 4 -7 13 -9 19 -5 7 4 9 13 5 19 -4 7
-13 9 -19 5z"/>
<path d="M1809 570 c13 -11 20 -20 16 -20 -4 0 -2 -7 5 -15 10 -11 9 -18 -4
-30 -21 -21 -20 -41 0 -49 15 -6 15 -4 3 11 -12 15 -12 16 4 10 9 -3 17 -3 17
1 0 4 7 15 14 25 12 15 18 16 35 8 12 -7 22 -7 26 -2 7 12 -32 34 -45 26 -5
-3 -11 -1 -14 4 -3 5 1 12 10 15 23 9 36 7 29 -4 -3 -5 -1 -10 4 -10 6 0 11 6
11 14 0 17 -38 28 -43 12 -3 -8 -10 -8 -28 1 -13 6 -33 14 -44 17 -18 5 -17 4
4 -14z"/>
<path d="M764 566 c1 -8 5 -18 8 -22 4 -3 5 1 4 10 -1 8 -5 18 -8 22 -4 3 -5
-1 -4 -10z"/>
<path d="M792 547 c5 -26 4 -28 -23 -22 -16 4 -29 4 -29 1 0 -9 37 -22 83 -30
34 -6 37 -5 37 17 0 14 -7 27 -15 31 -8 3 -15 1 -15 -4 0 -6 5 -10 12 -10 17
0 1 -13 -20 -17 -13 -1 -18 5 -20 24 -1 15 -5 29 -8 32 -4 3 -4 -7 -2 -22z"/>
<path d="M1536 555 c-3 -9 0 -15 9 -15 16 0 20 16 6 24 -5 3 -11 -1 -15 -9z"/>
<path d="M440 550 c0 -5 5 -10 11 -10 5 0 7 5 4 10 -3 6 -8 10 -11 10 -2 0 -4
-4 -4 -10z"/>
<path d="M1090 551 c0 -5 5 -13 10 -16 6 -3 10 -2 10 4 0 5 -4 13 -10 16 -5 3
-10 2 -10 -4z"/>
<path d="M140 540 c-8 -5 -12 -11 -9 -14 7 -8 49 5 49 15 0 12 -21 11 -40 -1z"/>
<path d="M1767 544 c-9 -9 4 -35 14 -28 5 3 9 12 9 20 0 14 -12 19 -23 8z"/>
<path d="M2136 521 c-16 -17 -16 -26 -7 -70 6 -27 8 -69 5 -92 l-6 -42 32 5
c24 4 38 0 52 -14 19 -19 19 -20 1 -33 -20 -15 -17 -17 40 -29 22 -5 29 -2 36
16 l8 22 5 -22 c4 -15 11 -20 22 -16 18 7 15 31 -3 27 -6 -2 -11 4 -11 13 0
11 6 15 18 12 10 -3 23 1 31 9 7 8 22 11 34 8 17 -5 19 -4 7 4 -8 6 -22 8 -30
6 -8 -2 -22 0 -30 6 -13 9 -12 10 3 5 11 -3 16 -2 12 4 -9 14 -35 13 -35 -2 0
-6 -3 -8 -6 -5 -4 4 -1 13 5 21 14 16 8 21 -34 30 -43 9 -88 53 -81 79 3 11 2
33 -1 48 -7 35 -40 39 -67 10z m164 -216 c-15 -18 -36 -19 -46 -3 -5 8 -2 9 9
5 9 -3 19 -2 22 3 4 6 11 10 17 10 7 0 6 -6 -2 -15z"/>
<path d="M348 513 c7 -3 16 -2 19 1 4 3 -2 6 -13 5 -11 0 -14 -3 -6 -6z"/>
<path d="M1792 490 c0 -14 2 -19 5 -12 2 6 2 18 0 25 -3 6 -5 1 -5 -13z"/>
<path d="M1026 476 c3 -9 10 -13 15 -10 5 3 11 -1 14 -8 5 -11 55 -22 55 -12
0 2 -17 11 -37 21 -21 9 -41 19 -46 21 -4 2 -4 -3 -1 -12z"/>
<path d="M1766 463 c-6 -14 -5 -15 5 -6 7 7 10 15 7 18 -3 3 -9 -2 -12 -12z"/>
<path d="M2430 465 c0 -4 14 -20 31 -36 42 -39 29 -53 -26 -29 -42 18 -75 18
-75 0 0 -4 17 -11 38 -16 23 -4 30 -9 19 -11 -24 -6 -18 -37 8 -41 20 -3 20
-3 0 14 -19 16 -19 16 8 10 83 -19 84 -19 63 -2 -16 13 -17 18 -6 31 7 8 9 15
4 16 -5 0 5 7 21 14 28 13 28 14 6 15 -13 0 -39 9 -57 21 -19 11 -34 18 -34
14z"/>
<path d="M2355 440 c-3 -5 1 -10 10 -10 9 0 13 5 10 10 -3 6 -8 10 -10 10 -2
0 -7 -4 -10 -10z"/>
<path d="M2670 430 c0 -6 7 -10 15 -10 8 0 15 2 15 4 0 2 -7 6 -15 10 -8 3
-15 1 -15 -4z"/>
<path d="M2720 420 c0 -5 5 -10 10 -10 6 0 10 5 10 10 0 6 -4 10 -10 10 -5 0
-10 -4 -10 -10z"/>
<path d="M2511 374 c0 -11 3 -14 6 -6 3 7 2 16 -1 19 -3 4 -6 -2 -5 -13z"/>
<path d="M1989 367 c11 -14 11 -18 -3 -23 -9 -3 -16 -12 -16 -20 0 -13 -26
-32 -45 -32 -11 0 -50 27 -80 55 -26 24 -85 24 -103 1 -7 -10 -26 -18 -43 -18
-22 0 -29 -5 -29 -20 0 -11 7 -20 15 -20 8 0 15 -4 15 -9 0 -5 19 -12 43 -16
23 -4 45 -13 49 -19 5 -7 45 -11 110 -11 108 0 131 -6 121 -30 -4 -11 -1 -13
11 -9 14 5 14 8 0 30 -15 22 -15 24 2 31 11 4 25 13 32 20 11 11 10 13 -7 13
-21 0 -47 35 -43 57 2 7 -8 17 -20 24 -21 11 -22 11 -9 -4z"/>
<path d="M2550 371 c20 -6 22 -9 10 -16 -8 -5 -19 -10 -25 -10 -5 0 -11 -10
-11 -23 -1 -17 2 -20 12 -11 8 6 26 8 44 4 23 -5 30 -3 30 9 0 9 -4 16 -10 16
-5 0 -10 -4 -10 -10 0 -5 -7 -7 -15 -4 -13 5 -12 9 5 24 24 21 17 30 -24 29
-29 -1 -30 -1 -6 -8z"/>
<path d="M2728 363 c7 -3 16 -2 19 1 4 3 -2 6 -13 5 -11 0 -14 -3 -6 -6z"/>
<path d="M65 350 c3 -5 8 -10 11 -10 2 0 4 5 4 10 0 6 -5 10 -11 10 -5 0 -7
-4 -4 -10z"/>
<path d="M2630 350 c13 -9 13 -11 0 -19 -12 -8 -11 -11 5 -16 11 -4 31 -11 44
-16 17 -7 26 -7 31 2 6 8 9 8 13 0 4 -8 5 -8 3 1 -4 20 -35 35 -44 21 -6 -9
-13 -5 -26 12 -10 14 -24 25 -30 25 -6 0 -4 -5 4 -10z"/>
<path d="M110 339 c0 -5 5 -7 10 -4 6 3 10 8 10 11 0 2 -4 4 -10 4 -5 0 -10
-5 -10 -11z"/>
<path d="M2460 330 c0 -5 7 -10 16 -10 8 0 12 5 9 10 -3 6 -10 10 -16 10 -5 0
-9 -4 -9 -10z"/>
<path d="M148 313 c7 -3 16 -2 19 1 4 3 -2 6 -13 5 -11 0 -14 -3 -6 -6z"/>
<path d="M176 302 c-2 -4 4 -8 14 -9 11 -1 22 2 25 8 4 5 -3 9 -14 9 -11 0
-22 -4 -25 -8z"/>
<path d="M2183 298 c-23 -30 -24 -41 -2 -21 12 12 20 25 17 28 -3 3 -10 0 -15
-7z"/>
<path d="M2443 303 c9 -2 17 -9 17 -14 0 -5 9 -9 20 -9 12 0 20 7 20 18 0 14
-2 15 -10 2 -6 -10 -10 -11 -10 -2 0 7 -12 12 -27 11 -17 -1 -21 -3 -10 -6z"/>
<path d="M2394 283 c0 -11 -12 -24 -32 -34 -22 -11 -28 -18 -18 -22 7 -3 19 0
25 6 8 8 11 7 11 -6 0 -9 4 -17 10 -17 5 0 7 8 4 18 -5 15 -4 14 10 -2 14 -18
34 -21 91 -14 8 1 16 7 19 14 3 8 0 11 -8 8 -7 -3 -21 2 -30 11 -14 15 -16 15
-16 1 0 -9 6 -16 13 -16 8 0 7 -3 -3 -10 -9 -5 -19 -5 -26 0 -6 6 -14 7 -17 3
-4 -3 -7 1 -7 10 0 10 8 17 18 17 13 0 11 6 -12 25 -35 30 -34 30 -32 8z"/>
<path d="M2741 284 c0 -11 3 -14 6 -6 3 7 2 16 -1 19 -3 4 -6 -2 -5 -13z"/>
<path d="M565 260 c-15 -7 -9 -9 25 -9 33 -1 41 2 30 9 -18 12 -28 12 -55 0z"/>
<path d="M2687 255 c-4 -8 -2 -17 3 -20 6 -4 10 3 10 14 0 25 -6 27 -13 6z"/>
<path d="M2515 255 c6 -2 23 -6 38 -9 17 -4 25 -11 21 -18 -4 -7 -3 -8 4 -4
27 16 11 33 -30 34 -24 0 -38 -1 -33 -3z"/>
<path d="M2605 241 c-3 -6 -1 -11 6 -11 7 0 9 -3 6 -6 -9 -9 11 -44 25 -44 6
0 6 6 -3 16 -7 9 -14 23 -15 31 -3 21 -11 26 -19 14z"/>
<path d="M2715 240 c-3 -5 1 -10 9 -10 9 0 16 5 16 10 0 6 -4 10 -9 10 -6 0
-13 -4 -16 -10z"/>
<path d="M428 223 c7 -3 16 -2 19 1 4 3 -2 6 -13 5 -11 0 -14 -3 -6 -6z"/>
<path d="M2655 221 c-4 -7 0 -8 11 -4 12 4 15 3 10 -5 -4 -7 -2 -12 4 -12 14
0 8 22 -7 27 -6 2 -14 -1 -18 -6z"/>
<path d="M1630 200 c-9 -6 -10 -10 -3 -10 6 0 15 5 18 10 8 12 4 12 -15 0z"/>
<path d="M351 174 c0 -11 3 -14 6 -6 3 7 2 16 -1 19 -3 4 -6 -2 -5 -13z"/>
<path d="M2681 187 c2 -1 13 -9 24 -17 19 -14 19 -14 6 3 -7 9 -18 17 -24 17
-6 0 -8 -1 -6 -3z"/>
<path d="M25 170 c-3 -5 1 -10 10 -10 9 0 13 5 10 10 -3 6 -8 10 -10 10 -2 0
-7 -4 -10 -10z"/>
<path d="M1970 169 c0 -5 5 -7 10 -4 6 3 10 8 10 11 0 2 -4 4 -10 4 -5 0 -10
-5 -10 -11z"/>
<path d="M1860 140 c0 -5 5 -10 11 -10 5 0 7 5 4 10 -3 6 -8 10 -11 10 -2 0
-4 -4 -4 -10z"/>
<path d="M0 115 c0 -16 16 -20 24 -6 3 5 -1 11 -9 15 -9 3 -15 0 -15 -9z"/>
<path d="M1315 121 c-11 -10 -4 -16 20 -16 14 0 25 4 25 8 0 5 6 5 13 1 7 -4
9 -3 4 2 -9 9 -54 13 -62 5z"/>
<path d="M964 113 c11 -11 46 -14 46 -3 0 6 -12 10 -27 10 -14 0 -23 -3 -19
-7z"/>
<path d="M913 103 c9 -2 23 -2 30 0 6 3 -1 5 -18 5 -16 0 -22 -2 -12 -5z"/>
<path d="M22 83 c-29 -21 -32 -83 -3 -83 11 0 22 6 24 13 4 9 6 9 6 0 1 -8 15
-13 39 -12 20 1 29 3 20 6 -9 2 -15 10 -12 18 7 17 34 8 34 -11 0 -8 9 -14 21
-14 11 0 17 5 14 10 -4 6 -10 8 -15 5 -4 -3 -10 4 -13 15 -3 13 0 20 9 20 8 0
14 5 14 10 0 6 7 10 17 10 23 0 14 6 -22 14 -22 5 -26 4 -15 -4 8 -5 13 -10
10 -11 -3 0 -13 -2 -22 -4 -10 -2 -20 1 -24 6 -3 5 -10 7 -15 4 -13 -9 -50 5
-44 16 8 12 4 11 -23 -8z m12 -28 c-8 -19 -10 -19 -18 0 -3 9 0 15 9 15 9 0
12 -6 9 -15z"/>
<path d="M725 80 c-3 -6 1 -7 9 -4 18 7 21 14 7 14 -6 0 -13 -4 -16 -10z"/>
<path d="M1910 79 c0 -5 -6 -7 -12 -3 -7 4 -9 3 -5 -1 13 -15 36 -14 30 1 -6
17 -13 18 -13 3z"/>
<path d="M604 65 c-18 -14 -18 -14 4 -8 12 3 22 9 22 14 0 12 -3 11 -26 -6z"/>
<path d="M1368 73 c7 -3 16 -2 19 1 4 3 -2 6 -13 5 -11 0 -14 -3 -6 -6z"/>
<path d="M1720 70 c0 -5 12 -10 28 -9 24 0 25 1 7 9 -27 12 -35 12 -35 0z"/>
<path d="M1962 56 c7 -7 19 -11 26 -8 11 4 11 6 0 13 -7 5 -19 9 -26 9 -10 0
-10 -3 0 -14z"/>
<path d="M230 55 c0 -2 6 -8 13 -14 10 -8 14 -7 14 2 0 8 -6 14 -14 14 -7 0
-13 -1 -13 -2z"/>
<path d="M556 48 c3 -5 10 -6 15 -3 13 9 11 12 -6 12 -8 0 -12 -4 -9 -9z"/>
<path d="M2638 42 c-34 -7 -18 -22 22 -22 34 0 39 2 28 13 -13 14 -21 16 -50
9z"/>
<path d="M176 32 c-6 -10 5 -26 22 -30 16 -3 15 6 -2 24 -8 8 -17 11 -20 6z"/>
<path d="M510 30 c0 -5 7 -7 15 -4 8 4 15 8 15 10 0 2 -7 4 -15 4 -8 0 -15 -4
-15 -10z"/>
<path d="M1390 30 c0 -5 5 -10 11 -10 5 0 7 5 4 10 -3 6 -8 10 -11 10 -2 0 -4
-4 -4 -10z"/>
<path d="M1909 24 c-23 -13 -22 -14 16 -8 48 8 51 10 27 16 -10 3 -30 -1 -43
-8z"/>
<path d="M2037 33 c-4 -3 -7 -11 -7 -17 0 -6 5 -5 12 2 6 6 9 14 7 17 -3 3 -9
2 -12 -2z"/>
</g>
</svg>
